<svg xmlns="http://www.w3.org/2000/svg" width="16" height="16" viewBox="0 0 16 16">
  <g id="Group_6105" data-name="Group 6105" transform="translate(9668 5479)">
    <path id="Polygon_111" data-name="Polygon 111" d="M10.144,0l.976,2.6,2.736-.452L13.4,4.88l2.6.976L14.24,8,16,10.144l-2.6.976.452,2.736L11.12,13.4,10.144,16,8,14.24,5.856,16,4.88,13.4l-2.736.452L2.6,11.12,0,10.144,1.76,8,0,5.856,2.6,4.88,2.144,2.144,4.88,2.6,5.856,0,8,1.76Z" transform="translate(-9668 -5479)" fill="#289d40"/>
    <g id="noun_tick_162332" transform="translate(-9664.475 -5474.536)">
      <path id="Path_213" data-name="Path 213" d="M8.18,16.539a.569.569,0,0,1-.405-.164l-2.527-2.6a.593.593,0,0,1,.82-.858l1.852,1.321a.242.242,0,0,0,.357-.039l4.388-5.42a.592.592,0,0,1,.945.714L8.652,16.3a.591.591,0,0,1-.424.231A.087.087,0,0,1,8.18,16.539Z" transform="translate(-5.061 -8.537)" fill="#fff"/>
    </g>
  </g>
</svg>
